<?xml version="1.0" encoding="UTF-8" standalone="no"?>
<!-- Created with Inkscape (http://www.inkscape.org/) -->

<svg
   version="1.1"
   id="svg2"
   width="900"
   height="900"
   viewBox="0 0 900 900"
   sodipodi:docname="blender_logo.svg"
   inkscape:version="1.1.1 (3bf5ae0d25, 2021-09-20, custom)"
   xmlns:inkscape="http://www.inkscape.org/namespaces/inkscape"
   xmlns:sodipodi="http://sodipodi.sourceforge.net/DTD/sodipodi-0.dtd"
   xmlns="http://www.w3.org/2000/svg"
   xmlns:svg="http://www.w3.org/2000/svg">
  <defs
     id="defs6" />
  <sodipodi:namedview
     id="namedview4"
     pagecolor="#ffffff"
     bordercolor="#666666"
     borderopacity="1.0"
     inkscape:pageshadow="2"
     inkscape:pageopacity="0.0"
     inkscape:pagecheckerboard="0"
     showgrid="false"
     inkscape:zoom="0.73111111"
     inkscape:cx="450"
     inkscape:cy="450"
     inkscape:window-width="1600"
     inkscape:window-height="835"
     inkscape:window-x="0"
     inkscape:window-y="0"
     inkscape:window-maximized="1"
     inkscape:current-layer="g8" />
  <g
     inkscape:groupmode="layer"
     inkscape:label="Image"
     id="g8">
    <g
       id="g210"
       transform="translate(3.1323532,-32.388588)">
      <path
         style="fill:#fd6b00"
         d="M 543,786.37342 C 483.50834,781.16695 434.3374,764.30037 391.20802,734.30587 368.90574,718.79565 347.24078,697.84984 330.2191,675.3414 c -16.52651,-21.85364 -32.65515,-52.82996 -40.14525,-77.10207 -6.27232,-20.32586 -7.36758,-27.75735 -7.76464,-52.68413 -0.20101,-12.61964 -0.54923,-23.12855 -0.77382,-23.35314 -0.45985,-0.45985 -12.61923,9.52861 -33.17297,27.25029 -24.92305,21.48896 -40.53426,34.87276 -44.89822,38.49213 -2.35783,1.95554 -10.28935,8.75207 -17.62558,15.1034 -7.33624,6.35134 -22.74865,19.62634 -34.24979,29.5 -11.50114,9.87367 -24.99959,21.46188 -29.99656,25.75159 -10.82483,9.29272 -14.93079,11.81427 -24.018501,14.7502 -13.073794,4.22371 -29.615475,1.23754 -41.691986,-7.52639 C 34.917632,650.30958 31.433941,617.02889 48.793312,597.80509 52.213839,594.01719 89.073679,561.72223 96.50754,556 c 1.786288,-1.375 9.94035,-8.27703 18.12013,-15.33784 21.99553,-18.98659 42.58106,-36.60557 63.37233,-54.23981 10.175,-8.62998 22.325,-18.96352 27,-22.96341 4.675,-3.99989 16.62859,-14.17697 26.56352,-22.61574 47.68537,-40.50407 65.30535,-55.53734 69.47411,-59.27491 2.49569,-2.23756 9.59343,-8.31257 15.77275,-13.50001 6.17933,-5.18745 11.08377,-9.88583 10.89876,-10.44085 -0.22117,-0.66353 -24.11583,-1.07233 -69.77276,-1.1937 -67.83558,-0.18032 -69.57127,-0.23311 -75.28747,-2.29007 -33.83496,-12.17541 -43.61432,-52.6863 -18.81347,-77.93448 6.02471,-6.13337 16.88067,-11.79546 25.20502,-13.14604 4.33033,-0.70258 65.54445,-1.05052 185.70954,-1.05559 114.93583,-0.005 179.25,-0.35503 179.25,-0.97601 0,-0.53265 -2.5875,-2.86896 -5.75,-5.1918 -7.31765,-5.37477 -34.73893,-25.73324 -61.75,-45.84525 -11.55,-8.59994 -26.19928,-19.47389 -32.55396,-24.16433 -17.49328,-12.91194 -22.1916,-20.45311 -22.3553,-35.88202 -0.0845,-7.96541 0.16795,-9.0753 3.6816,-16.18468 4.14446,-8.38573 9.74496,-14.11421 17.56531,-17.96668 4.08039,-2.01009 6.0978,-2.28766 16.16235,-2.22369 13.01318,0.0827 15.23453,0.78111 24.17185,7.59967 3.11952,2.37998 13.24452,9.92391 22.5,16.76429 9.25548,6.84038 24.47815,18.12894 33.82815,25.08569 9.35,6.95675 25.325,18.80249 35.5,26.32386 27.71592,20.48764 48.90165,36.1784 75,55.54713 12.925,9.59221 28.45,21.09943 34.5,25.5716 63.91229,47.24403 73.30791,54.51709 85.75239,66.38016 26.56827,25.32702 41.52588,44.83408 55.22818,72.02616 15.86278,31.47956 24.1793,61.54519 26.45198,95.62835 0.9723,14.58136 -0.008,48.0732 -1.917,65.5 -5.45359,49.78231 -29.38411,99.51461 -65.01555,135.11499 -20.06109,20.0436 -41.32144,34.97512 -71.05651,49.90425 -31.97463,16.05354 -73.5932,27.38411 -113.87201,31.00142 -18.22241,1.6365 -50.46521,1.80608 -67.07148,0.35276 z M 605.82569,653.0959 c 12.81558,-2.27348 11.20268,-1.87899 25.17431,-6.15725 12.1687,-3.72618 33.18706,-13.47116 44,-20.40022 26.1739,-16.77253 46.57663,-39.22819 59.09254,-65.03843 11.70621,-24.1405 15.32663,-39.83337 15.2265,-66 -0.071,-18.55324 -1.50206,-27.39019 -7.36469,-45.47742 C 727.70731,406.06797 687.63757,366.76679 639.5,349.53338 600.14332,335.44356 559.22567,333.97582 518.5,345.19304 463.18644,360.42825 418.73344,400.67993 401.64927,451 c -4.63711,13.65824 -6.73165,25.45431 -7.37436,41.53111 -1.66455,41.63653 14.81283,81.23727 46.60014,111.99602 22.17345,21.45596 45.49679,34.73174 77.96202,44.37643 8.71256,2.5883 19.17934,4.51901 35.16293,6.48619 8.71246,1.07228 40.87542,-0.35128 51.82569,-2.29385 z"
         id="path214" />
      <path
         style="fill:#01559a"
         d="m 553.5,598.86278 c -44.45009,-5.61484 -83.44768,-33.58011 -97.44589,-69.87868 -8.55322,-22.17925 -7.71851,-47.69095 2.26754,-69.30446 12.30658,-26.63598 38.11213,-48.44717 69.97381,-59.14278 22.23929,-7.46548 54.038,-8.61079 76.71585,-2.76311 6.33122,1.63256 15.10622,4.40437 19.5,6.15957 37.53061,14.99248 63.87396,46.69794 68.55863,82.51354 3.63136,27.76278 -8.85575,59.79283 -31.13326,79.85837 -28.20443,25.40396 -68.73391,37.57272 -108.43668,32.55755 z"
         id="path212" />
    </g>
  </g>
</svg>
