<?xml version="1.0" encoding="UTF-8" standalone="no"?>
<!-- Created with Inkscape (http://www.inkscape.org/) -->

<svg
   version="1.1"
   id="svg2"
   width="426.96759"
   height="426.96759"
   viewBox="0 0 426.96759 426.96759"
   sodipodi:docname="freesound.svg"
   inkscape:version="1.1.1 (3bf5ae0d25, 2021-09-20, custom)"
   xmlns:inkscape="http://www.inkscape.org/namespaces/inkscape"
   xmlns:sodipodi="http://sodipodi.sourceforge.net/DTD/sodipodi-0.dtd"
   xmlns="http://www.w3.org/2000/svg"
   xmlns:svg="http://www.w3.org/2000/svg">
  <defs
     id="defs6" />
  <sodipodi:namedview
     id="namedview4"
     pagecolor="#ffffff"
     bordercolor="#666666"
     borderopacity="1.0"
     inkscape:pageshadow="2"
     inkscape:pageopacity="0.0"
     inkscape:pagecheckerboard="0"
     showgrid="false"
     inkscape:zoom="0.91388889"
     inkscape:cx="275.19757"
     inkscape:cy="273.55623"
     inkscape:window-width="1600"
     inkscape:window-height="835"
     inkscape:window-x="0"
     inkscape:window-y="0"
     inkscape:window-maximized="1"
     inkscape:current-layer="g8"
     inkscape:snap-bbox="true"
     inkscape:snap-bbox-edge-midpoints="true"
     inkscape:snap-bbox-midpoints="true" />
  <g
     inkscape:groupmode="layer"
     inkscape:label="Image"
     id="g8"
     style="display:inline"
     transform="translate(272.10913,75.486374)" />
  <g
     inkscape:groupmode="layer"
     id="layer1"
     inkscape:label="Image 1"
     style="display:inline"
     transform="translate(272.10913,75.486374)">
    <g
       id="g248"
       transform="matrix(0.84924674,0,0,0.84924674,-282.82648,-8.5229305)"
       style="display:inline">
      <path
         style="fill:#940514"
         d="m 319.12025,212.81319 c -7.50563,-1.29077 -11.66992,-5.26325 -12.7968,-12.20742 L 305.73832,197 h 4.65559 c 3.99361,0 4.78529,0.34113 5.56772,2.39909 1.88365,4.95435 7.95945,6.96088 13.4721,4.44915 3.35205,-1.5273 4.20487,-4.48512 1.99669,-6.92512 -0.96241,-1.06346 -4.94047,-2.88102 -8.84013,-4.03904 -3.89966,-1.15801 -8.32017,-2.73828 -9.82336,-3.51171 -8.12061,-4.17823 -7.45484,-18.36675 1.13095,-24.10244 2.59557,-1.73395 4.82322,-2.26993 9.43428,-2.26993 8.40434,0 13.96675,2.79053 16.07744,8.06568 2.50336,6.2565 2.21685,6.93432 -2.93104,6.93432 -3.81894,0 -4.69363,-0.37792 -5.62972,-2.43241 -2.95838,-6.49295 -14.62986,-5.10407 -13.6756,1.62737 0.27664,1.9515 1.7635,2.77122 9.69401,5.34446 C 338.75762,186.39753 342,189.50615 342,197.0479 c 0,6.7904 -2.1117,11.43451 -6.17122,13.57194 -4.27077,2.24865 -11.14201,3.15065 -16.70853,2.19335 z m 37.25887,-1.24977 c -14.62973,-6.36726 -15.03733,-39.51158 -0.57743,-46.9544 7.36284,-3.78981 18.5811,-2.04139 23.85979,3.71866 10.86566,11.85648 7.19611,38.63172 -5.97658,43.6087 -3.89474,1.47154 -13.54566,1.26355 -17.30578,-0.37296 z m 17.04861,-12.71037 c 2.2702,-3.84313 3.07384,-12.31206 1.66349,-17.53005 -1.2131,-4.48819 -5.94311,-9.323 -9.12089,-9.323 -6.78892,0 -10.47033,5.62566 -10.47033,16 0,8.66507 1.90749,12.88086 6.90056,15.25105 2.72933,1.2956 3.46987,1.29506 6.20159,-0.005 1.70619,-0.81173 3.8777,-2.78877 4.82558,-4.39341 z m 24.96002,13.45927 C 394.66074,211.5795 391.10004,206.80048 390.0139,201.0733 389.45626,198.13285 389,188.58844 389,179.86351 V 164 h 4.9174 4.91739 l 0.33261,17.47423 c 0.31204,16.39416 0.46746,17.60896 2.51449,19.65411 2.62629,2.62388 7.6763,2.76247 10.41301,0.28578 3.01762,-2.73091 3.89356,-7.93425 3.89952,-23.16412 L 416,164 h 5 5 v 24 24 h -5 c -4.95411,0 -5,-0.0292 -5,-3.18709 v -3.18709 l -2.75,2.62347 c -4.35248,4.15222 -8.55942,5.30231 -14.86225,4.06303 z M 481.5,212.04051 c -3.0319,-1.26235 -7.20247,-6.08223 -9.01281,-10.41602 -3.38869,-8.11218 -2.33947,-23.05594 2.15965,-30.75951 5.49353,-9.40621 16.68209,-10.54346 23.56989,-2.39574 1.64041,1.94048 1.71821,1.50839 1.75,-9.71924 L 500,147 h 5 5 v 32.5 32.5 h -5 c -4.88889,0 -5,-0.0667 -5,-3 0,-3.28566 -1.5314,-4.0518 -2.43133,-1.21637 -1.31156,4.13236 -10.51305,6.57 -16.06867,4.25688 z m 11.98934,-9.03646 c 4.18332,-1.59049 6.87761,-8.84382 6.23923,-16.79669 -0.57576,-7.17278 -2.78546,-11.12063 -7.08072,-12.6504 -6.91559,-2.46301 -11.77285,3.70594 -11.77285,14.95207 0,7.3784 2.07066,12.14446 6.17974,14.22399 2.97984,1.50804 3.16096,1.51567 6.4346,0.27103 z M 431,188 v -24 h 4.5 c 4.48638,0 4.5,0.0107 4.5,3.54211 v 3.5421 l 3.84516,-4.0421 c 3.4937,-3.67264 4.30283,-4.04211 8.85212,-4.04211 6.63346,0 11.30873,3.0768 12.95014,8.5225 0.72777,2.41452 1.22908,11.14894 1.27573,22.2275 L 467,212 h -5 -5 v -16.45295 c 0,-17.84961 -0.66973,-20.90849 -4.88784,-22.32424 -3.69745,-1.241 -7.09378,-0.12758 -9.52201,3.1216 -1.88354,2.52035 -2.12337,4.42085 -2.42619,19.2262 L 439.82792,212 H 435.41396 431 Z"
         id="path252" />
      <path
         style="fill:#030303"
         d="m 66.200097,241.7411 c -0.574636,-0.69239 -2.474331,-14.75489 -4.221546,-31.25 C 60.231337,193.996 58.591131,179.825 58.333649,179 c -0.834421,-2.67358 -1.936866,0.8291 -3.304811,10.5 -1.502356,10.62115 -2.404937,12.73397 -5.259028,12.31068 -1.614802,-0.23948 -2.633609,-1.91482 -4.445779,-7.31068 -5.255988,-15.65006 -7.423872,-20.39665 -9.644218,-21.11601 -1.198897,-0.38843 -4.975076,-0.64863 -8.391508,-0.57823 C 20.65903,172.94236 18,171.5562 18,167.96376 c 0,-2.66836 3.007844,-3.96466 9.184259,-3.95818 11.150824,0.0117 15.487107,2.7984 18.743607,12.04556 1.044175,2.96504 2.307195,5.52721 2.80671,5.69372 0.499516,0.1665 2.104571,-6.54539 3.56679,-14.91532 2.80995,-16.08452 4.016701,-18.80005 7.521086,-16.92456 2.373842,1.27044 2.287005,0.78182 5.684155,31.98379 1.340682,12.31383 2.664564,22.61573 2.94196,22.89313 0.937653,0.93765 1.31044,-2.19828 6.036727,-50.7819 2.594984,-26.675 5.13821,-49.2875 5.651613,-50.25 1.207206,-2.2632 4.524386,-2.2514 5.740231,0.0204 0.521127,0.97374 2.188438,16.38624 3.705135,34.25 1.516697,17.86376 2.906152,32.66707 3.087679,32.89624 0.932067,1.17668 1.649862,-1.97848 3.406634,-14.97427 C 97.954021,142.05399 98.93163,139 101.5,139 c 3.49622,0 4.00442,3.51474 5.92817,41 0.32461,6.325 0.67015,13.6375 0.76787,16.25 0.0977,2.6125 0.5232,4.75 0.94551,4.75 1.00509,0 1.18913,-1.16409 5.92851,-37.5 2.22388,-17.05 4.28099,-31.96998 4.57137,-33.15552 0.98262,-4.0118 7.35857,-3.094 7.35857,1.05925 0,0.69349 1.10032,10.22384 2.44516,21.17858 1.34483,10.95473 2.58233,21.49269 2.75,23.41769 0.51469,5.90936 2.18386,3.49863 3.60924,-5.2127 1.48627,-9.08356 3.25199,-12.7873 6.09621,-12.7873 2.77945,0 3.8051,1.81204 5.67542,10.02691 1.43491,6.30247 1.87551,7.18199 2.8127,5.61476 C 154.82686,166.21995 158.85177,164 167.86969,164 h 5.93394 l 0.7042,-6.06749 c 0.98459,-8.48327 3.39776,-11.09428 10.82273,-11.71002 L 191,145.75234 v 5.09245 c 0,4.17061 -0.27827,4.98566 -1.53725,4.50254 -2.26262,-0.86825 -5.46275,2.53393 -5.46275,5.80766 0,2.58477 0.32015,2.84501 3.5,2.84501 3.46519,0 3.5,0.0434 3.5,4.3629 0,3.853 -0.26296,4.3648 -2.25,4.37916 -1.2375,0.009 -2.8125,0.0707 -3.5,0.13711 -0.95327,0.0922 -1.25,4.7629 -1.25,19.67562 v 19.55479 l -4.60283,-0.30479 -4.60282,-0.30479 0.0306,-19.25 c 0.0224,-14.06733 -0.28647,-19.27642 -1.14717,-19.34813 -3.25294,-0.27102 -12.14795,0.11258 -13.64761,0.58855 -0.93889,0.29799 -3.24227,3.57205 -5.11863,7.27569 -2.03453,4.01584 -4.14796,6.87018 -5.23596,7.07154 -2.73498,0.50618 -5.44767,-2.52904 -6.19065,-6.92671 C 143.12154,178.75992 142.48223,177 142.06426,177 c -0.41797,0 -1.80051,4.8375 -3.07231,10.75 -2.6374,12.26106 -4.30099,16.25 -6.77708,16.25 -3.11164,0 -4.02159,-3.43305 -6.25707,-23.60653 -2.11614,-19.09646 -2.46986,-21.23692 -3.35635,-20.31014 -0.2192,0.22917 -2.71548,18.14851 -5.54728,39.82076 -2.8318,21.67225 -5.59329,40.23475 -6.13664,41.25 -0.54334,1.01525 -1.63669,1.84591 -2.42966,1.84591 -3.44574,0 -4.21573,-4.19204 -5.87771,-32 -0.90396,-15.125 -1.63605,-28.3775 -1.62687,-29.45 0.0104,-1.21327 -0.33316,-1.59108 -0.90935,-1 -0.509326,0.5225 -1.466771,5.675 -2.127651,11.45 -1.350946,11.80504 -2.207115,14.77912 -4.508822,15.66237 -3.823624,1.46726 -4.475419,-1.44675 -7.254115,-32.4314 -1.483582,-16.5431 -2.997998,-30.37895 -3.36537,-30.74632 -0.881615,-0.88162 -1.087593,0.88931 -5.933635,51.01535 -2.742713,28.36982 -4.628913,43.76553 -5.543785,45.25 -1.544926,2.50679 -3.560102,2.89532 -5.140465,0.9911 z M 236,212.97217 c -10.2052,-1.79211 -15.66687,-8.6106 -16.69203,-20.83876 C 217.83066,174.51215 225.57056,163 238.89506,163 c 11.9926,0 18.89298,7.37252 19.88914,21.25 l 0.48453,6.75 H 244.13437 C 229.54444,191 229,191.07373 229,193.04966 c 0,2.89102 2.5873,7.54787 5.21679,9.38964 3.29519,2.30803 8.17041,1.94722 11.49567,-0.85081 2.495,-2.0994 7.85739,-3.24384 12.56322,-2.68123 0.94121,0.11253 -1.88627,5.87483 -4.14391,8.44512 -3.6991,4.21138 -11.81957,6.72826 -18.13177,5.61979 z m 13,-30.82429 c 0,-3.18119 -4.34074,-8.52735 -7.7077,-9.49298 -4.35294,-1.24841 -9.37753,1.69014 -10.93387,6.39448 -0.62786,1.89784 -0.93881,3.78812 -0.69098,4.20062 0.24782,0.4125 4.69903,0.75 9.89157,0.75 8.52304,0 9.44098,-0.18008 9.44098,-1.85212 z m 32,31.06866 c -8.33845,-1.09404 -14.97445,-6.70104 -17.05439,-14.40987 -1.74466,-6.46619 -0.76416,-20.42222 1.77795,-25.30667 2.48011,-4.76531 5.74435,-7.97573 9.59154,-9.43339 3.97046,-1.50436 12.13247,-1.32427 16.15502,0.35646 C 297.93508,167.1243 303,177.28331 303,187.54922 V 191 h -15 -15 v 2.56574 c 0,9.01419 10.81251,13.94547 16.84879,7.68426 2.28692,-2.37213 3.31067,-2.70784 7.45057,-2.44319 4.42635,0.28296 4.74646,0.47726 4.1188,2.5 -2.38097,7.67307 -11.62277,13.06373 -20.41816,11.90973 z m 11,-31.99403 c 0,-3.8481 -2.37498,-6.86113 -6.4747,-8.21416 -4.4337,-1.46325 -8.15622,0.17248 -10.82591,4.75708 C 271.55787,183.16028 272.67164,184 282.96862,184 H 292 Z m -97.65919,6.8218 L 194.22312,164 H 199.11156 204 v 3.5 c 0,4.07987 1.20744,4.53489 2.79395,1.05289 1.44508,-3.17161 5.49455,-5.79521 8.30394,-5.38002 1.97448,0.2918 2.22551,0.94809 2.3245,6.07713 l 0.11096,5.75 h -3.3436 c -2.36222,0 -4.20154,0.85795 -6.26667,2.92308 -3.18462,3.18462 -3.06891,2.40872 -3.2924,22.07692 l -0.13068,11.5 -5.02075,0.29431 -5.02074,0.29431 z"
         id="path250" />
    </g>
  </g>
</svg>
