<?xml version="1.0" encoding="UTF-8" standalone="no"?>
<!-- Created with Inkscape (http://www.inkscape.org/) -->

<svg
   version="1.1"
   id="svg2"
   width="592.43335"
   height="592.43335"
   viewBox="0 0 592.43335 592.43335"
   sodipodi:docname="LMMS_logo.svg"
   inkscape:version="1.1.1 (3bf5ae0d25, 2021-09-20, custom)"
   xmlns:inkscape="http://www.inkscape.org/namespaces/inkscape"
   xmlns:sodipodi="http://sodipodi.sourceforge.net/DTD/sodipodi-0.dtd"
   xmlns="http://www.w3.org/2000/svg"
   xmlns:svg="http://www.w3.org/2000/svg">
  <defs
     id="defs6" />
  <sodipodi:namedview
     id="namedview4"
     pagecolor="#ffffff"
     bordercolor="#666666"
     borderopacity="1.0"
     inkscape:pageshadow="2"
     inkscape:pageopacity="0.0"
     inkscape:pagecheckerboard="0"
     showgrid="false"
     inkscape:snap-bbox="true"
     inkscape:snap-bbox-midpoints="true"
     inkscape:snap-bbox-edge-midpoints="false"
     inkscape:snap-center="false"
     inkscape:snap-object-midpoints="false"
     inkscape:bbox-nodes="false"
     inkscape:zoom="0.57517483"
     inkscape:cx="6.0851064"
     inkscape:cy="345.98176"
     inkscape:window-width="1600"
     inkscape:window-height="835"
     inkscape:window-x="0"
     inkscape:window-y="0"
     inkscape:window-maximized="1"
     inkscape:current-layer="g8" />
  <g
     inkscape:groupmode="layer"
     inkscape:label="Image"
     id="g8"
     transform="translate(-22.386272,3.2365873)"
     style="display:inline">
    <g
       id="g156"
       transform="matrix(1.0859658,0,0,1.0859658,-130.54737,-17.772804)">
      <path
         style="fill:#65f898"
         d="m 169.56202,481.03548 -4.06202,-2.88072 -1.42807,-144.02872 0.0654,-143.73092 51.6813,-29.58373 C 244.24342,144.54034 281.9,122.93119 299.5,112.79106 317.1,102.65092 350.06204,83.660705 372.74897,70.590579 l 41.24896,-23.763866 6.75104,3.764484 C 424.46204,52.661662 436.95,59.819605 448.5,66.497735 466.87698,77.123182 572.42622,137.92772 639.48189,176.5181 l 22.98189,13.22603 1.06268,4.37793 c 0.12435,103.66081 -2.2397,190.36773 -0.52645,283.70321 -26.67034,14.05197 -60.91306,33.6178 -84.52661,49.08734 -26.67829,-17.54348 -52.4698,-31.19585 -79.98275,-45.82905 l -5.50935,-3.33901 0.25935,-48.94108 0.25935,-48.94108 19,-11.01283 c 10.45,-6.05705 28.7875,-16.68189 40.75,-23.61074 L 575,332.64091 v -44.30013 l 0.50001,-47.55993 C 522.48069,210.63242 468.19426,175.46497 414.13725,147.95605 366.39762,171.70169 286.0182,222.53821 252.5,240.74198 c -1.10874,25.76723 -2.76198,50.35184 -0.51974,91.90143 L 291.5,354.88264 c 17.92771,10.08859 22.67607,15.6306 42,24.85352 -0.24793,22.80888 -0.0836,72.26789 0,98.52906 -30.37977,15.17212 -54.45774,29.29244 -83.89885,47.15427 C 216.97,508.1159 199.87493,495.87301 169.56202,481.03548 Z"
         id="path168"
         sodipodi:nodetypes="cccccsscsssccccccccssccccccscccc" />
      <path
         style="fill:#2acd67"
         d="M 216.97,508.1159 C 199.1115,497.82046 180.1125,486.80636 174.75,483.64013 L 165,477.88333 V 334.0723 190.26128 l 31.25,-17.82433 C 227.24923,154.75566 397.20438,56.979775 408.26117,50.466064 l 5.76118,-3.393988 42.23882,24.331844 C 479.49253,84.786433 524.6,110.77757 556.5,129.162 c 31.9,18.38444 68.9125,39.69756 82.25,47.36249 L 663,190.46074 v 143.64719 c 0,113.7214 -0.26041,143.85408 -1.25,144.64032 -0.6875,0.54623 -17.9,10.56796 -38.25,22.27051 -20.35,11.70255 -38.80599,22.31608 -41.0133,23.58561 l -4.0133,2.30824 -20.9867,-12.02516 c -11.54269,-6.61383 -30.73523,-17.69856 -42.65009,-24.63272 l -21.6634,-12.60756 0.53578,-48.57359 c 0.29468,-26.71547 0.81821,-48.88705 1.1634,-49.27017 0.34518,-0.38312 18.17761,-10.88459 39.62761,-23.33659 21.45,-12.452 39.5625,-23.10613 40.25,-23.67585 0.96415,-0.79898 1.24748,-10.6695 1.23899,-43.16341 C 575.98294,266.4574 575.71158,245.925 575.38596,244 574.82621,240.69083 573.96809,240.02941 559.64697,231.86892 551.31614,227.12182 526.95,213.14376 505.5,200.80656 411.973,147.01349 415.47722,149 414.11263,149 c -0.50471,0 -17.04903,9.27716 -36.76515,20.61591 C 357.63137,180.95465 322.375,201.1793 299,214.55957 c -23.375,13.38026 -43.39098,24.98523 -44.47995,25.78882 -1.92119,1.4177 -1.98146,2.80306 -2.03084,46.67689 l -0.0509,45.21582 2.42764,1.62945 c 1.3352,0.8962 19.57408,11.5303 40.53083,23.63133 l 38.1032,22.00188 0.64147,5.99812 c 0.3528,3.29897 0.6903,25.41939 0.75,49.1565 L 335,477.81676 l -17.25,9.95672 c -28.3902,16.38686 -64.11044,36.86637 -66.28,38.00036 -1.73239,0.90549 -6.7901,-1.68317 -34.5,-17.65794 z m 69.15788,-15.79186 C 317.14171,474.43475 320.06942,472.523 318.3696,471.2707 317.34132,470.51315 309.975,466.14549 302,461.56478 294.025,456.98407 279.2875,448.48653 269.25,442.68137 L 251,432.12652 v 39.93674 C 251,494.02847 251.22873,512 251.50828,512 c 0.27956,0 15.85838,-8.85418 34.6196,-19.67596 z m 326.55989,-2.69038 C 630.1845,479.53217 644.44154,470.88849 644.37009,470.42548 644.25834,469.70131 581.5373,433 580.41146,433 580.18516,433 580,449.875 580,470.5 c 0,20.625 0.197,37.5 0.43777,37.5 0.24078,0 14.75328,-8.26485 32.25,-18.36634 z M 321.77071,410.03691 321.5,390.07381 l -34.24793,19.7131 c -18.83636,10.8422 -34.24886,19.95035 -34.25,20.24034 -0.001,0.28999 15.41043,9.41033 34.24793,20.26742 l 34.25,19.74016 0.27071,-20.01742 c 0.14888,-11.00957 0.14888,-29.0008 0,-39.9805 z M 648.77114,410.6634 648.5,391.3268 615.26975,410.4134 C 596.99311,420.91103 582.03288,429.725 582.0248,430 c -0.008,0.275 14.94553,9.11039 33.23025,19.63419 l 33.24495,19.1342 0.27114,-19.3842 c 0.14913,-10.6613 0.14913,-28.08566 0,-38.72079 z M 313.74997,391.78775 c 2.88748,-1.63825 5.45236,-3.30611 5.69972,-3.70635 0.34045,-0.55085 -63.49929,-38.22674 -67.63333,-39.91473 C 251.36736,347.98333 251,365.8476 251,387.86503 v 40.0317 l 28.75,-16.56518 c 15.8125,-9.11084 31.11249,-17.90556 33.99997,-19.5438 z M 248,386.4853 v -40.5147 l -3.25,-1.98728 c -1.7875,-1.093 -3.925,-1.73459 -4.75,-1.42575 -1.61616,0.60501 -52.72494,29.95191 -59.74821,34.30771 -3.54827,2.20062 -4.24851,3.15676 -4.25,5.80316 -0.001,2.57899 0.69439,3.6022 3.74037,5.5 7.77464,4.844 66.79076,38.75821 67.50784,38.79406 0.4125,0.0206 0.75,-18.19411 0.75,-40.4772 z m -36,-30.77639 26.5,-15.37656 0.30054,-4.56209 c 0.26547,-4.02973 -0.0263,-4.79083 -2.5,-6.5222 -3.34302,-2.33979 -56.66107,-33.06544 -58.80771,-33.88918 C 176.18415,294.85669 176,299.79729 176,335.40986 v 40.62383 l 4.75,-2.47411 c 2.6125,-1.36076 16.675,-9.39356 31.25,-17.85067 z m 27,-67.8159 c 0,-36.83385 -0.10172,-39.06796 -1.75,-38.43561 -2.8137,1.07946 -57.57624,32.69154 -59.5,34.34681 -2.09055,1.79878 -2.30397,6.49114 -0.36831,8.0976 1.95977,1.62646 59.96061,35.05075 60.86831,35.07673 0.4125,0.0118 0.75,-17.57668 0.75,-39.08553 z m -34.68805,-22.49244 c 37.7849,-21.67948 34.85547,-19.5396 34.49084,-25.19474 L 238.5,235.50991 213,220.77979 c -14.025,-8.10157 -28.0875,-16.11769 -31.25,-17.8136 L 176,199.88272 v 40.55864 C 176,262.74861 176.25288,281 176.56195,281 c 0.30906,0 12.79656,-7.01974 27.75,-15.59943 z M 245.04966,232.47432 248,230.94864 v -36.91106 -36.91106 l -18.25,10.54827 c -10.0375,5.80154 -25.76956,14.88102 -34.96013,20.17661 -9.19057,5.29558 -16.39057,9.92544 -16,10.28857 1.2678,1.17871 61.68511,35.81866 62.50979,35.83966 0.43981,0.0112 2.12731,-0.66619 3.75,-1.50531 z M 287,208.51966 c 17.875,-10.27149 32.8407,-19.00359 33.25712,-19.40467 0.41641,-0.40107 -12.18359,-8.18866 -28,-17.30574 -37.78391,-21.77985 -34.63636,-20.28901 -38.28497,-18.13373 L 251,155.43122 v 36.81957 c 0,34.75679 0.098,36.76705 1.75,35.88194 0.9625,-0.5157 16.375,-9.34158 34.25,-19.61307 z m 39.89528,-22.96551 c 2.69327,-1.39274 2.8198,-1.80593 3.44517,-11.25 0.89626,-13.53508 0.7993,-61.53619 -0.12724,-62.99341 -0.85367,-1.34261 -69.37658,37.533 -68.89398,39.08613 0.22872,0.73609 61.43548,36.60313 62.46288,36.60313 0.17446,0 1.57539,-0.65063 3.11317,-1.44585 z m 42.38625,-24.24109 C 387.31138,150.96588 402.11988,142.05 402.18932,141.5 c 0.13682,-1.08373 -58.2995,-35.211 -61.84513,-36.11804 -1.21064,-0.30971 -3.29318,0.19373 -4.75,1.14828 L 333,108.23002 v 36.92017 c 0,34.86574 0.0974,36.86608 1.75,35.94806 0.9625,-0.53467 16.50169,-9.438 34.53153,-19.78519 z m 43.21209,-27.56555 c 0.32082,-1.78613 0.4535,-18.6239 0.29485,-37.417262 L 412.5,62.160496 378.00341,82.07003 c -18.97313,10.950244 -34.60979,20.25163 -34.74813,20.66975 -0.13835,0.41812 13.98392,8.95258 31.38281,18.96546 31.09668,17.89581 31.68227,18.18046 34.45329,16.74751 1.9238,-0.99484 3.00415,-2.48894 3.40224,-4.70524 z"
         id="path164" />
      <path
         style="fill:#1bb05a"
         d="M 216.97,508.1159 C 199.1115,497.82046 180.1125,486.80636 174.75,483.64013 L 165,477.88333 V 334.0723 190.26128 l 31.25,-17.82433 C 227.24923,154.75566 397.20438,56.979775 408.26117,50.466064 l 5.76118,-3.393988 42.23882,24.331844 C 479.49253,84.786433 524.6,110.77757 556.5,129.162 c 31.9,18.38444 68.9125,39.69756 82.25,47.36249 L 663,190.46074 v 143.64719 c 0,113.7214 -0.26041,143.85408 -1.25,144.64032 -0.6875,0.54623 -17.9,10.56796 -38.25,22.27051 -20.35,11.70255 -38.80599,22.31608 -41.0133,23.58561 l -4.0133,2.30824 -20.9867,-12.02516 c -11.54269,-6.61383 -30.73523,-17.69856 -42.65009,-24.63272 l -21.6634,-12.60756 0.53578,-48.57359 c 0.29468,-26.71547 0.81821,-48.88705 1.1634,-49.27017 0.34518,-0.38312 18.17761,-10.88459 39.62761,-23.33659 21.45,-12.452 39.5625,-23.10613 40.25,-23.67585 0.96415,-0.79898 1.24748,-10.6695 1.23899,-43.16341 C 575.98294,266.4574 575.71158,245.925 575.38596,244 574.82621,240.69083 573.96809,240.02941 559.64697,231.86892 551.31614,227.12182 526.95,213.14376 505.5,200.80656 411.973,147.01349 415.47722,149 414.11263,149 c -0.50471,0 -17.04903,9.27716 -36.76515,20.61591 C 357.63137,180.95465 322.375,201.1793 299,214.55957 c -23.375,13.38026 -43.39098,24.98523 -44.47995,25.78882 -1.92119,1.4177 -1.98146,2.80306 -2.03084,46.67689 l -0.0509,45.21582 2.42764,1.62945 c 1.3352,0.8962 19.57408,11.5303 40.53083,23.63133 l 38.1032,22.00188 0.64147,5.99812 c 0.3528,3.29897 0.6903,25.41939 0.75,49.1565 L 335,477.81676 l -17.25,9.95672 c -28.3902,16.38686 -64.11044,36.86637 -66.28,38.00036 -1.73239,0.90549 -6.7901,-1.68317 -34.5,-17.65794 z m 70.80629,-10.7191 c 19.64804,-11.33176 36.11292,-20.96847 36.58862,-21.41491 0.47571,-0.44645 -1.09929,-2.05648 -3.5,-3.57785 C 314.54499,468.39898 251.19822,432 250.54797,432 c -0.76714,0 -0.67417,71.01318 0.10374,79.25 0.35063,3.7125 0.80926,6.75 1.01919,6.75 0.20992,0 16.45735,-9.27144 36.10539,-20.6032 z M 598,506.45367 c 6.875,-3.92955 18.575,-10.66429 26,-14.96611 7.425,-4.30181 17.02182,-9.81743 21.32627,-12.25694 7.44386,-4.21874 7.72617,-4.50559 5.77755,-5.87045 C 648.44466,471.49762 580.00084,432 579.43247,432 c -0.6912,0 -0.499,68.91116 0.21578,77.367 l 0.64824,7.66875 2.60176,-1.71872 c 1.43096,-0.9453 8.22675,-4.93381 15.10175,-8.86336 z M 247.99974,484.25 247.99948,456.5 238.30454,451 c -5.33221,-3.025 -10.04352,-5.64547 -10.46957,-5.82328 -0.84086,-0.35091 -42.65859,23.05012 -45.9424,25.70919 -1.92039,1.55503 -0.58395,2.44872 31.8014,21.26598 18.59332,10.80351 33.91853,19.68895 34.05603,19.74542 0.1375,0.0565 0.24988,-12.38481 0.24974,-27.64731 z m 408.56371,-97.01988 c -0.55225,-0.55225 -7.25301,3.14157 -45.84067,25.26988 -16.30467,9.35 -29.66238,17.25415 -29.68381,17.56479 -0.0214,0.31063 1.42353,1.30404 3.21103,2.20758 1.7875,0.90354 18.775,10.59678 37.75,21.54053 l 34.5,19.89773 0.26074,-43.01124 c 0.14341,-23.65619 0.0546,-43.21736 -0.19729,-43.46927 z M 326.7695,408.47055 326.5,386.9411 l -35,20.11232 c -19.25,11.06178 -36.05153,20.78598 -37.33673,21.60933 -2.61395,1.67461 -7.3821,-1.34249 49.83673,31.53476 l 22.5,12.92822 0.2695,-21.56286 c 0.14823,-11.85958 0.14823,-31.25112 0,-43.09232 z m -124.45446,47.36954 c 9.45173,-5.5291 18.23622,-10.71579 19.5211,-11.52599 2.26715,-1.42958 1.72526,-1.82511 -18.34975,-13.39359 C 192.10915,424.36423 182.39539,419 181.90025,419 181.40511,419 181,419.9128 181,421.02844 c 0,1.11564 -0.64003,8.42814 -1.42229,16.25 -0.78227,7.82186 -1.7182,18.41154 -2.07985,23.53262 l -0.65756,9.31106 4.14489,-2.11457 c 2.27969,-1.16301 11.87812,-6.63837 21.32985,-12.16746 z m 44.76868,-116.15637 c -0.58344,-0.58344 -3.51477,0.49502 -7.76065,2.85521 -10.12044,5.62572 -50.55365,28.9544 -60.26676,34.77201 l -8.4437,5.0573 2.75774,2.06588 c 1.51675,1.13623 18.81641,11.33169 38.44369,22.65656 l 35.68596,20.59069 0.26065,-43.53004 c 0.15647,-26.13104 -0.1141,-43.90478 -0.67693,-44.46761 z m 39.13657,68.18663 c 18.30384,-10.56838 34.51412,-19.92513 36.02284,-20.79279 1.50872,-0.86766 2.63372,-1.91155 2.5,-2.31976 -0.40097,-1.22406 -73.02556,-42.80863 -73.65859,-42.17663 -0.3215,0.32096 -0.73165,19.73293 -0.91146,43.13771 -0.29254,38.07798 -0.16418,42.49168 1.22028,41.96041 0.85097,-0.32654 16.52308,-9.24057 34.82693,-19.80894 z m -78.33389,-49.5475 c 34.4897,-19.88523 37.10952,-21.50588 37.11181,-22.95784 9.9e-4,-0.62424 -1.23571,-1.9544 -2.74821,-2.9559 C 237.07406,328.98187 172.59733,292 171.79798,292 171.35909,292 171,311.58415 171,335.52032 v 43.52033 l 4.1364,-2.11024 c 2.27502,-1.16063 17.01252,-9.53403 32.75,-18.60756 z M 245,287.47968 v -42.52033 l -4.25,2.15965 c -4.97159,2.52632 -61.72873,35.2105 -66.48762,38.28757 -1.78069,1.15139 -3.24319,2.3258 -3.25,2.6098 C 170.98669,289.08816 241.83062,330 243.71225,330 244.74239,330 245,321.49401 245,287.47968 Z m 374.68823,7.39134 c 13.44959,-7.77094 24.08435,-14.47232 23.63279,-14.89195 C 642.31426,279.0435 594.03578,251 593.4319,251 593.19435,251 593,255.87786 593,261.83969 593,276.75687 594.21357,309 594.77502,309 c 0.25267,0 11.46362,-6.35804 24.91321,-14.12898 z M 201.09646,267.47511 c 37.22517,-21.33446 43.9056,-25.41236 43.89116,-26.79223 -0.007,-0.65058 -1.59319,-2.20698 -3.52529,-3.45865 C 236.2049,233.81831 181.22585,202.15096 175.75,199.37462 L 171,196.96631 v 43.62383 c 0,36.15495 0.23053,43.53538 1.34646,43.10715 0.74055,-0.28417 13.67805,-7.58415 28.75,-16.22218 z M 648.35764,276.25 c 0.27083,-0.9625 0.76776,-16.825 1.10429,-35.25 0.33653,-18.425 0.87126,-35.25521 1.18829,-37.40047 0.51777,-3.50357 0.38681,-3.82803 -1.2869,-3.18852 -1.02483,0.39157 -14.35082,7.9232 -29.61332,16.73696 L 592,233.17298 v 6.79356 6.79357 l 27.25,15.59939 c 14.9875,8.57966 27.55718,15.60864 27.93261,15.61994 0.37544,0.0113 0.9042,-0.76694 1.17503,-1.72944 z m -400.01185,-47.5 c 0.80918,-10.39474 0.63464,-71.37365 -0.2141,-74.80038 -0.62179,-2.51042 -1.21564,-2.21308 -37.90433,18.97863 -42.8162,24.73101 -39.83293,20.84362 -23.29767,30.35843 5.26367,3.02885 20.59531,11.84905 34.07031,19.60044 13.475,7.7514 24.9958,14.09782 25.60178,14.10316 0.66279,0.006 1.35767,-3.27743 1.74401,-8.24028 z m 40.78218,-15.82314 C 309.40758,201.33664 326,191.70543 326,191.52417 326,190.44216 253.5723,149 251.68129,149 c -0.21186,0 -0.61621,16.5375 -0.89856,36.75 -0.48252,34.54224 -0.20721,48.25 0.96907,48.25 0.27727,0 17.09655,-9.48291 37.37617,-21.07314 z m 328.87374,2.07215 28.04682,-16.20002 -5.77426,-3.52834 c -3.17585,-1.94059 -9.97763,-6.05786 -15.11506,-9.1495 -10.57744,-6.36535 -10.36761,-6.23864 -26.65921,-16.09863 -6.6,-3.99444 -13.4625,-8.1453 -15.25,-9.22413 L 580,158.83688 v 34.59626 34.59626 l 3.25,2.01021 c 1.7875,1.10562 4.02735,1.81879 4.97744,1.58482 0.95009,-0.23396 14.34851,-7.7154 29.77427,-16.62542 z M 576.76296,191.44622 576.5,156.89243 l -3.66413,-2.09369 -3.66412,-2.0937 -30.08588,17.32844 C 522.53864,179.56413 509,187.69359 509,188.09896 c 0,0.66664 25.21448,15.06659 45.5,25.98499 4.4,2.36823 10.925,6.01021 14.5,8.09327 3.575,2.08307 6.84333,3.79536 7.26296,3.80509 0.41962,0.01 0.64462,-15.53151 0.5,-34.53609 z M 330.35815,186.25 c 0.91782,-5.5528 0.77488,-81.04975 -0.15455,-81.62417 -1.16522,-0.72014 -74.24965,41.69259 -73.87956,42.87417 0.17227,0.55 6.35734,4.54734 13.74459,8.88298 C 292.67109,169.64854 328.40134,190 329.08871,190 c 0.35728,0 0.92853,-1.6875 1.26944,-3.75 z m 62.0117,-32.5665 c 15.61224,-8.92374 15.8352,-9.09904 13.73538,-10.79937 -2.27312,-1.84066 -59.72122,-35.15996 -66.81539,-38.75223 C 336.97425,102.95935 334.61175,102 334.03984,102 333.3362,102 333,115.87917 333,144.9267 v 42.92669 l 21.75,-12.54945 c 11.9625,-6.9022 28.89143,-16.63139 37.61985,-21.62044 z m 143.76518,15.10595 c 16.42573,-9.46581 29.84897,-17.45331 29.82942,-17.75 -0.0425,-0.6453 -4.18043,-3.17933 -39.96445,-24.47409 -18.41459,-10.95836 -27.74272,-15.98513 -28.23469,-15.21518 -0.91211,1.4275 -0.98811,45.12521 -0.10514,60.44942 0.62423,10.83356 0.75809,11.35778 3.24546,12.70997 1.4269,0.77569 3.21763,1.42837 3.9794,1.45039 0.76177,0.022 14.82427,-7.70471 31.25,-17.17051 z m -43.37231,-62.00332 c -1.24449,-0.95791 -2.95766,-1.75166 -3.80703,-1.76389 -1.87202,-0.027 -63.17707,35.15834 -63.34041,36.35347 -0.11592,0.84809 10.60324,7.28782 26.38472,15.85109 4.675,2.53672 16.15,8.89057 25.5,14.11966 l 17,9.50744 0.26272,-36.16305 0.26273,-36.16305 z M 412.76091,98.104842 412.5,56.071082 405,60.467433 c -4.125,2.417992 -21.12378,12.247847 -37.77508,21.844122 l -30.27507,17.447771 4.77507,3.051074 c 2.6263,1.67809 19.37393,11.42201 37.21697,21.65315 25.87489,14.83657 32.60767,18.30582 33.26091,17.13856 0.45046,-0.80493 0.70161,-20.3787 0.55811,-43.497268 z m 33.84388,27.593868 c 13.69236,-7.86571 28.1853,-16.22668 32.20651,-18.57992 l 7.31131,-4.27862 -9.81131,-5.727367 C 470.91509,93.96275 459.975,87.628274 452,83.036189 444.025,78.444105 432.775,71.900348 427,68.494507 420.10421,64.427677 416.24781,62.679299 415.76531,63.401035 415.36123,64.005466 415.02454,80.7 415.0171,100.5 l -0.0135,36 2.74822,1.65857 c 1.51151,0.91222 3.02036,1.69972 3.353,1.75 0.33263,0.0503 11.80763,-6.34415 25.5,-14.20986 z"
         id="path162" />
      <path
         style="fill:#07755b"
         d="M 216.97,508.1159 C 199.1115,497.82046 180.1125,486.80636 174.75,483.64013 L 165,477.88333 V 334.0723 190.26128 l 31.25,-17.82433 C 227.24923,154.75566 397.20438,56.979775 408.26117,50.466064 l 5.76118,-3.393988 42.23882,24.331844 C 479.49253,84.786433 524.6,110.77757 556.5,129.162 c 31.9,18.38444 68.9125,39.69756 82.25,47.36249 L 663,190.46074 v 143.64719 c 0,113.7214 -0.26041,143.85408 -1.25,144.64032 -0.6875,0.54623 -17.9,10.56796 -38.25,22.27051 -20.35,11.70255 -38.80599,22.31608 -41.0133,23.58561 l -4.0133,2.30824 -20.9867,-12.02516 c -11.54269,-6.61383 -30.73523,-17.69856 -42.65009,-24.63272 l -21.6634,-12.60756 0.53578,-48.57359 c 0.29468,-26.71547 0.81821,-48.88705 1.1634,-49.27017 0.34518,-0.38312 18.17761,-10.88459 39.62761,-23.33659 21.45,-12.452 39.5625,-23.10613 40.25,-23.67585 0.96415,-0.79898 1.24748,-10.6695 1.23899,-43.16341 C 575.98294,266.4574 575.71158,245.925 575.38596,244 574.82621,240.69083 573.96809,240.02941 559.64697,231.86892 551.31614,227.12182 526.95,213.14376 505.5,200.80656 411.973,147.01349 415.47722,149 414.11263,149 c -0.50471,0 -17.04903,9.27716 -36.76515,20.61591 C 357.63137,180.95465 322.375,201.1793 299,214.55957 c -23.375,13.38026 -43.39098,24.98523 -44.47995,25.78882 -1.92119,1.4177 -1.98146,2.80306 -2.03084,46.67689 l -0.0509,45.21582 2.42764,1.62945 c 1.3352,0.8962 19.57408,11.5303 40.53083,23.63133 l 38.1032,22.00188 0.64147,5.99812 c 0.3528,3.29897 0.6903,25.41939 0.75,49.1565 L 335,477.81676 l -17.25,9.95672 c -28.3902,16.38686 -64.11044,36.86637 -66.28,38.00036 -1.73239,0.90549 -6.7901,-1.68317 -34.5,-17.65794 z m 31.94239,-25.2089 c 0.0482,-14.62615 -0.20276,-31.99324 -0.55765,-38.59353 l -0.64527,-12.00053 -33.10473,19.00843 c -18.20761,10.45464 -35.06312,20.22235 -37.45669,21.70603 l -4.35196,2.69759 11.35196,6.57588 c 6.24357,3.61674 23.05195,13.3229 37.35195,21.56926 l 26,14.99337 0.66239,-4.68175 c 0.36432,-2.57496 0.70182,-16.6486 0.75,-31.27475 z m 41.96239,13.37683 c 18.90614,-10.91796 34.37969,-20.27911 34.38569,-20.80255 C 325.27095,474.56615 252.35017,432 250.77195,432 c -0.91502,0 -1.05865,85.37997 -0.14517,86.29345 0.80138,0.80138 -0.21895,1.35934 40.248,-22.00962 z m 326.96667,0.99456 c 19.9878,-11.52862 36.34535,-21.33555 36.35011,-21.79317 0.008,-0.81387 -72.96213,-43.41748 -74.44156,-43.46243 -0.4125,-0.0125 -0.75,19.60035 -0.75,43.5842 0,34.47877 0.26166,43.505 1.25,43.11977 0.6875,-0.26797 17.60365,-9.91974 37.59145,-21.44837 z M 577.40009,508.75 c 0.3227,-5.0875 0.2522,-24.36695 -0.15668,-42.84322 L 576.5,432.31356 541.82051,452.40678 c -19.07372,11.05127 -35.69294,20.80266 -36.93158,21.66976 -2.24255,1.56987 -2.22907,1.58923 3.17949,4.5692 2.98737,1.64597 11.50658,6.51256 18.93158,10.81467 7.425,4.3021 19.125,11.06384 26,15.02609 6.875,3.96225 14.75,8.58917 17.5,10.28204 2.75,1.69288 5.2955,3.1125 5.65668,3.15471 0.36117,0.0422 0.9207,-4.08575 1.24341,-9.17325 z M 205.55667,454.40084 c 18.66883,-10.77954 35.62736,-20.56704 37.68563,-21.75 2.05826,-1.18296 3.73879,-2.37584 3.73451,-2.65084 -0.008,-0.54063 -60.79839,-35.6826 -69.74129,-40.31662 -2.98959,-1.54914 -5.59458,-2.65765 -5.78888,-2.46335 C 170.54793,388.11874 169.75753,474 170.64797,474 c 0.53095,0 16.23987,-8.81962 34.9087,-19.59916 z M 329,429.89301 c 0,-34.87484 -0.26164,-44.00655 -1.25,-43.62715 -0.6875,0.26391 -13.175,7.3363 -27.75,15.71641 -14.575,8.38012 -31.33239,17.99983 -37.23864,21.37715 -5.90625,3.37732 -10.74375,6.36565 -10.75,6.64073 -0.0135,0.59596 75.15277,43.96146 76.23864,43.98417 0.4125,0.009 0.75,-19.83246 0.75,-44.09131 z m 328,0.0731 v -44.03394 l -6.7816,3.78394 C 630.19187,400.89029 581,429.5413 581,430.03121 581,430.51149 655.88978,474 656.71685,474 656.87258,474 657,454.18473 657,429.96606 Z M 542.86928,449.5 c 18.1944,-10.45 33.07928,-19.225 33.07751,-19.5 -0.002,-0.275 -5.27802,-3.48776 -11.725,-7.13948 -6.44698,-3.65171 -23.14964,-13.21421 -37.117,-21.25 C 513.13742,393.57474 501.32492,387 500.85479,387 c -1.02593,0 -1.07979,15.41112 -0.1949,55.77501 l 0.6599,30.1008 4.23438,-2.1879 C 507.88309,469.48456 524.67489,459.95 542.86928,449.5 Z M 248.98469,384.25 c -0.008,-24.0625 -0.41767,-44.38562 -0.90944,-45.16248 -0.70908,-1.12017 -8.72527,3.09234 -38.73469,20.35508 -20.81231,11.97216 -38.22148,22.12369 -38.68704,22.55896 -0.46556,0.43527 3.35944,3.28931 8.5,6.34232 19.53855,11.60403 68.37898,39.62262 69.09648,39.639 0.4125,0.009 0.74311,-19.67038 0.73469,-43.73288 z m 41.77753,21.25763 c 20.94751,-12.0958 38.00794,-22.05615 37.91208,-22.13411 -2.89191,-2.35172 -77.17163,-44.18419 -77.78377,-43.80586 C 250.39165,339.87598 250,359.4753 250,384.13234 c 0,36.24855 0.23606,43.95726 1.33792,43.69098 0.73586,-0.17782 18.4768,-10.21989 39.4243,-22.31569 z m 285.91699,-66.16176 c -0.188,-0.188 -17.51264,9.63277 -38.4992,21.82393 l -38.15738,22.16575 3.23869,2.00967 c 1.78127,1.10533 18.98868,11.10486 38.23868,22.22119 l 35,20.21152 0.26051,-44.04512 c 0.14329,-24.22481 0.1067,-44.19893 -0.0813,-44.38694 z m 39.11047,68.01393 c 19.64068,-11.35211 36.94473,-21.36461 38.45345,-22.25 1.50872,-0.88539 2.60331,-2.0598 2.43242,-2.6098 -0.29923,-0.96305 -40.99975,-24.95874 -64.62564,-38.10115 -8.34021,-4.63942 -11.6632,-6.03386 -12.23469,-5.13411 C 578.94784,340.63033 578.67655,428 579.53968,428 c 0.29683,0 16.60933,-9.28809 36.25,-20.6402 z M 213.74665,355.12148 c 17.73566,-10.24181 32.24816,-19.14804 32.25,-19.79162 0.003,-1.1172 -9.74508,-6.95979 -54.49665,-32.66231 l -20,-11.48676 -0.69237,3.6596 c -0.3808,2.01279 -0.7183,22.04007 -0.75,44.50507 L 170,380.19092 l 5.75,-3.22398 c 3.1625,-1.77318 20.26099,-11.60364 37.99665,-21.84546 z m 442.85691,-63.85126 c -0.61927,-0.61927 -4.28451,1.38208 -36.60356,19.98676 -33.67398,19.38467 -37.5,21.79971 -37.5,23.67062 0,1.36792 9.41414,7.08371 51,30.96458 l 23,13.20786 0.26063,-43.70606 c 0.14334,-24.03833 0.0727,-43.89403 -0.15707,-44.12376 z M 245.76913,265.97079 245.5,243.94158 210.36257,264.22079 c -19.32559,11.15357 -36.20059,21.05456 -37.5,22.00221 -2.33989,1.70647 -2.34349,1.73799 -0.37484,3.28407 1.09324,0.85859 16.16824,9.71169 33.5,19.67356 17.33175,9.96187 33.31227,19.16186 35.51227,20.44441 l 4,2.33191 0.26913,-21.97847 c 0.14802,-12.08817 0.14802,-31.89162 0,-44.00769 z m 372.75035,43.93206 c 19.2059,-11.05343 35.74969,-20.6784 36.76397,-21.38884 1.68733,-1.18184 1.34976,-1.58826 -3.96965,-4.77916 -4.64652,-2.78727 -40.70052,-23.58921 -62.99187,-36.34418 C 586.02399,246.0758 583.66149,245 583.07193,245 582.32617,245 582,257.93207 582,287.5 c 0,23.375 0.35992,42.5 0.79982,42.5 0.43991,0 16.51375,-9.04372 35.71966,-20.09715 z M 207,264.23219 c 37.43617,-21.54226 39,-22.49641 39,-23.79524 0,-0.83189 -62.83184,-37.76937 -73.75,-43.35603 l -2.25,-1.15129 0.0137,42.28519 c 0.008,23.25685 0.27455,43.25771 0.59341,44.44635 0.57211,2.13273 0.62127,2.13738 3.73634,0.35383 1.73613,-0.99403 16.4316,-9.4463 32.6566,-18.78281 z m 450,-24.33918 c 0,-39.01439 -0.17515,-44.03978 -1.51695,-43.52488 -2.09213,0.80283 -61.75,35.13009 -68.23305,39.26144 -2.8875,1.84007 -5.25,3.77053 -5.25,4.28991 0,1.48724 3.53373,3.67293 36.5,22.57602 17.05,9.77659 32.35,18.60703 34,19.62321 1.65,1.01618 3.3375,1.85518 3.75,1.86444 0.4125,0.009 0.75,-19.83129 0.75,-44.09014 z m -408.23941,-47.24803 0.26059,-43.85503 -3.26059,1.90742 c -1.79333,1.04907 -19.34488,11.08954 -39.00347,22.31214 -24.72027,14.1122 -35.42449,20.72635 -34.71047,21.44761 2.64221,2.66903 72.69135,42.40706 74.45335,42.23649 1.96229,-0.18996 2.00491,-1.02056 2.26059,-44.04863 z m 373.36977,20.42386 c 30.60443,-17.71126 33.6474,-19.59197 32.86964,-20.3151 -2.08505,-1.93862 -74.38429,-42.70303 -74.87275,-42.21543 -0.78786,0.78647 -1.45229,83.17228 -0.68685,85.16697 0.65544,1.70806 0.27428,1.91017 42.68996,-22.63644 z M 289.5,213.03423 c 20.35,-11.66988 37.10114,-21.31525 37.22475,-21.43417 0.27305,-0.26269 -9.48968,-5.98199 -46.72475,-27.37273 l -28.5,-16.37263 -0.66239,4.82265 c -0.36432,2.65246 -0.70182,22.30829 -0.75,43.67964 -0.0692,30.70382 0.17467,38.75608 1.16239,38.37609 0.6875,-0.2645 17.9,-10.02898 38.25,-21.69885 z M 577.25744,155.45984 576.5,148.12937 546,165.61251 c -48.01701,27.5242 -44.7977,25.44588 -42.14446,27.20756 1.23857,0.82239 18.09027,10.59445 37.44821,21.71569 L 576.5,234.7562 l 0.75744,-35.98294 c 0.41659,-19.79062 0.41659,-39.28166 0,-43.31342 z m -246.49687,-9.81022 c 0.14543,-24.4573 -0.12266,-43.67447 -0.60666,-43.48648 -0.47698,0.18527 -18.00228,10.21513 -38.94511,22.28856 -35.94741,20.7235 -37.96081,22.0337 -35.98563,23.41717 6.73642,4.71837 72.53394,42.031 73.77683,41.83755 1.30235,-0.2027 1.53433,-6.00782 1.76057,-44.0568 z m 173.03046,41.95628 c 4.93829,-2.50243 66.49505,-38.00393 69.34814,-39.99502 1.36774,-0.9545 -4.66545,-4.78408 -36.43539,-23.1274 -20.94101,-12.09091 -38.44113,-22.13348 -38.88917,-22.31681 -0.96882,-0.39644 -1.11579,86.19881 -0.14794,87.16666 0.92455,0.92456 0.84867,0.94596 6.12436,-1.72743 z M 376.82541,163 c 30.62286,-17.60369 32.07952,-18.57267 30.06576,-20 -3.19436,-2.26411 -72.19552,-42 -72.93278,-42 -0.89532,0 -2.18089,77.75637 -1.36946,82.83075 l 0.66254,4.14335 5.69594,-3.23705 C 342.08018,182.95667 359.12528,173.175 376.82541,163 Z m 117.7499,-61.75802 c -0.2454,-0.2454 -12.96273,6.74616 -28.26074,15.53679 -43.40628,24.94236 -46.30133,26.67139 -46.0413,27.49766 0.13439,0.42703 16.89038,10.35429 37.23554,22.06056 l 36.99119,21.28413 0.26074,-42.96649 c 0.14341,-23.63157 0.06,-43.16726 -0.18543,-43.41265 z m -81.8148,-2.575127 C 412.90379,74.650084 412.74576,55 412.40933,55 c -1.13856,0 -76.35085,43.494741 -76.38021,44.170137 -0.0507,1.166813 74.08672,43.850983 75.47088,43.451893 0.64183,-0.18505 1.09331,-15.92844 1.26051,-43.955177 z m 22.09164,34.203057 C 475.40536,109.59186 491.99778,99.800504 491.9611,99.169344 491.9262,98.568551 418.38351,55.972286 415.99024,55.166667 414.87135,54.790026 414.55052,141.21719 415.66667,142.33333 416.03333,142.7 416.5293,143 416.76881,143 c 0.23952,0 8.37702,-4.55854 18.08334,-10.13009 z"
         id="path160" />
      <path
         style="fill:#010302"
         d="m 207,502.06484 -41.5,-23.91008 -0.25336,-143.84033 -0.25336,-143.84033 39.25336,-22.42999 c 21.58935,-12.3365 77.44431,-44.43168 124.12214,-71.322624 47.36609,-27.287441 85.59029,-48.703946 86.50155,-48.465645 0.89803,0.234837 36.73207,20.666977 79.63122,45.404754 42.89915,24.737775 98.35078,56.646645 123.22586,70.908595 l 45.2274,25.93081 0.0226,143.66263 0.0226,143.66264 -41.17396,23.72647 c -22.64568,13.04957 -41.88318,23.91157 -42.75,24.1378 -1.33784,0.34914 -37.70443,-19.99832 -74.82604,-41.8659 l -10.25,-6.03806 v -48.79552 -48.79552 l 41.00985,-23.80968 41.00984,-23.80968 -0.25984,-45.89717 -0.25985,-45.89716 -52,-29.9403 c -28.6,-16.46716 -64.90662,-37.35274 -80.68138,-46.41239 l -28.68138,-16.47211 -56.31862,32.39128 C 326.84338,198.16253 290.475,219.03936 277,226.74029 l -24.5,14.00169 -0.25987,45.95071 -0.25987,45.95072 13.25987,7.67635 c 7.29293,4.22199 25.63487,14.81786 40.75987,23.54637 l 27.5,15.87003 v 49.26453 49.26453 l -41.47966,23.86739 c -22.81382,13.12706 -41.93882,23.86175 -42.5,23.85485 C 248.95915,525.98056 229.825,515.21538 207,502.06484 Z m 83.43262,-5.06478 38.5872,-22.22761 -0.25991,-46.07391 -0.25991,-46.07392 -40.75933,-23.46876 -40.75933,-23.46876 0.25933,-49.04964 0.25933,-49.04964 20,-11.42233 c 11,-6.28228 48.48997,-27.8089 83.31104,-47.83692 l 63.31104,-36.41459 60.68896,34.9299 C 508.18997,196.05532 545.625,217.58871 558,224.69585 l 22.5,12.92207 0.25928,48.95164 0.25929,48.95165 -41.0192,23.84535 -41.0192,23.84536 0.25991,45.95893 0.25992,45.95892 38.901,22.43512 C 559.79655,509.9042 577.75736,520 578.3139,520 c 0.55654,0 18.71359,-10.20985 40.349,-22.68856 L 658,474.62288 657.98095,334.06144 657.9619,193.5 632.73095,179.05723 C 607.90423,164.84586 430.90671,62.927047 419.81974,56.458581 l -5.68025,-3.31403 -89.81975,51.728579 C 274.91888,133.32384 219.9875,164.8862 202.25,175.0117 l -32.25,18.41 v 140.69395 140.69394 l 39.25,22.62261 c 21.78344,12.55537 39.99437,22.43856 40.92271,22.20904 0.91999,-0.22747 19.03695,-10.416 40.25991,-22.64118 z"
         id="path158" />
    </g>
  </g>
  <g
     inkscape:groupmode="layer"
     id="layer1"
     inkscape:label="Image 1" />
</svg>
