<?xml version="1.0" encoding="UTF-8" standalone="no"?>
<!-- Created with Inkscape (http://www.inkscape.org/) -->

<svg
   version="1.1"
   id="svg2"
   width="1280"
   height="886.40002"
   viewBox="0 0 1280 886.40002"
   sodipodi:docname="nodejs.svg"
   inkscape:version="1.1.1 (3bf5ae0d25, 2021-09-20, custom)"
   xmlns:inkscape="http://www.inkscape.org/namespaces/inkscape"
   xmlns:sodipodi="http://sodipodi.sourceforge.net/DTD/sodipodi-0.dtd"
   xmlns="http://www.w3.org/2000/svg"
   xmlns:svg="http://www.w3.org/2000/svg">
  <defs
     id="defs6" />
  <sodipodi:namedview
     id="namedview4"
     pagecolor="#ffffff"
     bordercolor="#666666"
     borderopacity="1.0"
     inkscape:pageshadow="2"
     inkscape:pageopacity="0.0"
     inkscape:pagecheckerboard="0"
     showgrid="false"
     inkscape:zoom="0.52490552"
     inkscape:cx="817.28994"
     inkscape:cy="390.54648"
     inkscape:window-width="1600"
     inkscape:window-height="835"
     inkscape:window-x="0"
     inkscape:window-y="0"
     inkscape:window-maximized="1"
     inkscape:current-layer="g8" />
  <g
     inkscape:groupmode="layer"
     inkscape:label="Image"
     id="g8">
    <g
       id="g1015">
      <path
         style="fill:#529c42;stroke-width:1.06667"
         d="m 630.18828,824.54184 c -8.06729,-1.95579 -14.65995,-5.37682 -43.95809,-22.81058 -13.53494,-8.05392 -34.20899,-20.31147 -45.94232,-27.239 -11.73334,-6.92752 -22.42322,-13.58062 -23.75532,-14.78465 -3.22995,-2.91944 -2.05946,-3.88642 9.35532,-7.72866 4.98666,-1.67853 15.01107,-6.06585 22.27646,-9.74959 7.26537,-3.68375 14.07302,-6.69772 15.12808,-6.69772 1.05507,0 18.58248,9.936 38.94979,22.08 27.33225,16.29684 37.91707,22.08 40.41264,22.08 2.53929,0 38.6527,-20.41665 145.03835,-81.99719 128.275,-74.25102 141.79687,-82.33154 143.13599,-85.53649 1.243,-2.97491 1.43469,-29.64669 1.20208,-167.25867 l -0.27673,-163.71936 -2.66666,-2.53203 c -1.46667,-1.39263 -22.58667,-13.97284 -46.93334,-27.95603 -53.01774,-30.45003 -134.66086,-77.43663 -154.66666,-89.01251 -45.45501,-26.30145 -75.61441,-43.63625 -78.6137,-45.18499 -6.38755,-3.29836 -8.39755,-2.54872 -36.2397,13.51583 -14.56397,8.40321 -77.59994,44.70234 -140.07994,80.66475 -62.48,35.96239 -114.8,66.53791 -116.26666,67.94558 l -2.66667,2.55941 -0.26843,164.50918 c -0.25969,159.15165 -0.20341,164.6134 1.72802,167.70918 1.48111,2.37399 12.15094,9.0376 41.3351,25.81497 43.22211,24.84748 45.80014,26.15534 56.50773,28.6669 20.85123,4.89085 39.76569,-3.52829 48.11144,-21.4152 l 2.98614,-6.4 0.53333,-165.1528 c 0.52294,-161.93144 0.57372,-165.18234 2.60388,-166.66667 1.61004,-1.17719 6.42468,-1.51387 21.64848,-1.51387 19.36424,0 19.60652,0.0286 22.19612,2.61819 l 2.61819,2.61817 V 474.9778 c 0,106.46724 -0.38521,166.14502 -1.11054,172.04848 -1.5203,12.3738 -3.75136,20.28231 -8.63077,30.59388 -10.13323,21.41432 -28.35624,34.35518 -54.63645,38.79945 -10.98784,1.85816 -36.63575,0.70386 -46.17805,-2.07829 -15.10544,-4.40411 -31.4579,-12.46424 -71.31086,-35.14911 -35.3746,-20.13572 -41.43142,-23.9597 -47.58984,-30.04585 -4.19732,-4.14808 -8.38036,-9.59626 -10.3238,-13.44618 -7.03343,-13.93315 -6.61969,-2.17232 -6.61969,-188.16855 0,-185.3392 -0.37472,-174.31268 6.37842,-187.69059 3.54906,-7.03064 11.28291,-15.95901 17.49328,-20.19518 2.41723,-1.64882 31.75497,-18.83807 65.19497,-38.19834 33.44,-19.36027 96.25393,-55.72172 139.58651,-80.80322 43.33259,-25.081511 81.45387,-46.782372 84.71397,-48.224142 13.58871,-6.009574 33.16255,-5.77962 46.55375,0.546916 3.56351,1.683543 35.2791,19.732336 70.4791,40.108426 35.2,20.37609 98.56,57.02515 140.8,81.44235 71.95989,41.59704 77.27184,44.86817 84.28691,51.90434 7.88115,7.90487 12.35758,15.4584 14.96361,25.24962 2.28244,8.57545 2.28231,343.14466 -1.3e-4,351.72014 -2.54056,9.54522 -6.96028,17.19978 -14.35156,24.85557 -6.65595,6.89413 -11.48327,9.85759 -90.23216,55.39296 -45.76,26.46003 -109.35191,63.2566 -141.31534,81.77014 -31.96344,18.51354 -60.16609,34.56813 -62.67257,35.67685 -10.61999,4.69773 -27.57454,6.20286 -38.91168,3.45437 z M 705.6212,603.62738 c -73.26197,-5.93491 -111.79164,-32.2574 -120.56771,-82.3688 -1.67322,-9.55407 -2.03339,-20.17748 -0.74929,-22.1006 2.03145,-3.04237 5.9784,-3.62635 24.50967,-3.62635 14.3747,0 19.55353,0.35631 21.04652,1.44802 1.32971,0.97229 2.60022,4.51016 3.86734,10.76891 7.55118,37.29796 32.1015,49.99508 96.4268,49.87075 50.37519,-0.0974 74.52796,-8.96849 82.98639,-30.48025 2.84675,-7.23995 3.14377,-23.10289 0.52343,-27.95425 -8.15938,-15.10642 -32.40082,-22.532 -97.33522,-29.81548 -60.65959,-6.80398 -87.93894,-15.84682 -105.97807,-35.13071 -10.66762,-11.40372 -15.79503,-24.68125 -16.90415,-43.77365 -1.69768,-29.22364 10.60321,-54.75989 34.11753,-70.82689 8.20703,-5.60775 24.00851,-12.62639 34.91838,-15.50988 17.5981,-4.65124 28.43823,-6.07824 50.60505,-6.66173 63.47083,-1.67072 106.28248,13.40185 127.12766,44.75746 8.48891,12.76917 15.09717,33.36724 15.58806,48.58837 0.3162,9.80447 0.36111,9.786 -23.78239,9.786 -14.28252,0 -20.32937,-0.3744 -21.53426,-1.33333 -0.92144,-0.73334 -2.73349,-4.93334 -4.0268,-9.33334 -5.16652,-17.5773 -13.87466,-29.34178 -26.83029,-36.24706 -24.08733,-12.83841 -87.75652,-13.74033 -113.40541,-1.60646 -13.30503,6.29428 -19.86004,15.67367 -20.66437,29.5681 -0.80789,13.95586 3.10531,20.52677 15.50053,26.02785 11.30137,5.01563 36.9201,10.14436 76.5606,15.327 90.20427,11.79341 119.24156,26.88102 128.01107,66.51383 2.28376,10.3212 1.71127,33.82575 -1.06887,43.88341 -12.86037,46.52491 -61.77391,71.57726 -138.1422,70.75313 -9.09333,-0.0981 -18.45333,-0.33395 -20.8,-0.52405 z"
         id="path1017" />
    </g>
  </g>
</svg>
